<?xml version="1.0" encoding="UTF-8"?>
<!--
  FanPitch — Horizontal logo for dark backgrounds (wordmark in white)
-->
<svg xmlns="http://www.w3.org/2000/svg" viewBox="0 0 1400 400" width="1400" height="400">
  <defs>
    <linearGradient id="markGradD" x1="0%" y1="0%" x2="100%" y2="100%">
      <stop offset="0%"   stop-color="#00A651"/>
      <stop offset="100%" stop-color="#FF6B2C"/>
    </linearGradient>
    <radialGradient id="markBallGlowD" cx="40%" cy="35%" r="65%">
      <stop offset="0%"   stop-color="#FFFFFF"/>
      <stop offset="100%" stop-color="#E8ECEF"/>
    </radialGradient>
  </defs>

  <g transform="translate(0,0)">
    <circle cx="200" cy="200" r="180" fill="url(#markGradD)"/>
    <g fill="none" stroke="#FFFFFF" stroke-width="6" stroke-linecap="round" opacity="0.78">
      <path d="M 280,128 A 95,95 0 0 1 280,272"/>
      <path d="M 120,128 A 95,95 0 0 0 120,272" opacity="0.55"/>
    </g>
    <g opacity="0.18" stroke="#FFFFFF" stroke-width="2.5" fill="none">
      <circle cx="200" cy="200" r="135"/>
      <line x1="200" y1="65" x2="200" y2="335"/>
    </g>
    <circle cx="200" cy="200" r="82" fill="url(#markBallGlowD)"/>
    <path d="M 200,153 L 244,182 L 227,231 L 173,231 L 156,182 Z" fill="#0D1117"/>
    <g fill="none" stroke="#0D1117" stroke-width="4" stroke-linejoin="round">
      <path d="M 156,182 L 124,196"/>
      <path d="M 244,182 L 276,196"/>
      <path d="M 173,231 L 162,269"/>
      <path d="M 227,231 L 238,269"/>
      <path d="M 200,153 L 200,124"/>
    </g>
    <path d="M 268,225 A 82,82 0 0 1 225,268"
          fill="none" stroke="#FF6B2C" stroke-width="6" stroke-linecap="round" opacity="0.9"/>
  </g>

  <g transform="translate(440,265)" font-family="Inter, -apple-system, 'Segoe UI', Roboto, sans-serif" font-weight="900">
    <text x="0" y="0" font-size="180" fill="#FFFFFF" letter-spacing="-6">Fan<tspan fill="#00A651">P</tspan>itch</text>
    <rect x="285" y="20" width="74" height="10" rx="5" fill="#FF6B2C"/>
  </g>
</svg>
